# xmcd CD database file
#
# Track frame offsets:
#	150
#	15218
#	30282
#	52689
#	85653
#	102606
#	125406
#	143121
#	164220
#	181870
#	200821
#	226443
#	247348
#	267698
#	292021
#	305833
#
# Disc length: 4331 seconds
#
# Revision: 2
# Processed by: cddbd v1.4b41PL1 Copyright (c) Steve Scherf et al.
# Submitted via: Feurio! 1.52 - http://www.feurio.com
#
DISCID=ea10e910
DTITLE=Udo´s Hits 2 - Komm.4/2001
DYEAR=1900
DGENRE=
TTITLE0=anastacia - not that kind
TTITLE1=Samanta Mumba - Gotta Tell You
TTITLE2=de la soul feat. chaka khan - all good?
TTITLE3=Gigi´d Augustino - La Passion
TTITLE4=Bon Jovi - It's My Life (Live)
TTITLE5=Modjo - Lady(complet)
TTITLE6=Paola e Chiara - Vamos a Bailar
TTITLE7=Ralph Tresvant - Sensitivity
TTITLE8=whhitney and enrice - Track: 18
TTITLE9=Die Ärzte - Manchmal haben Frauen ...
TTITLE10=Bon Jovi -  I'll Be There For You
TTITLE11=Spiller_Groovejet - -If This Aint Love
TTITLE12=destiny´s child - Track: 12
TTITLE13=george michael - Track: 2
TTITLE14=Jon Bon Jovi -  Thank you for loving me
TTITLE15=rednex - Track: 8
EXTD=
EXTT0=brought to you by STAR
EXTT1=
EXTT2=addicted to music, baby
EXTT3=
EXTT4=http://www.musicworld.nu
EXTT5=
EXTT6=I0016 GITEA
EXTT7=Ripped by FiDo DiDo
EXTT8=
EXTT9=Track 11
EXTT10=
EXTT11=
EXTT12=
EXTT13=
EXTT14=
EXTT15=
PLAYORDER=
